<svg xmlns="http://www.w3.org/2000/svg" viewBox="0 0 280 560">
  <rect width="280" height="560" rx="28" fill="#1c1108"/>
  <rect x="8" y="8" width="264" height="544" rx="22" fill="#0a0806"/>
  <text x="22" y="26" fill="#7a6b54" font-size="10" font-family="sans-serif">10:17</text>
  <rect x="210" y="15" width="24" height="10" rx="3" fill="none" stroke="#7a6b54" stroke-width="1.5"/>
  <rect x="211" y="16" width="18" height="8" rx="2" fill="#7a6b54" opacity="0.7"/>
  <rect x="236" y="17" width="2" height="6" rx="1" fill="#7a6b54"/>
  <!-- App header -->
  <rect x="8" y="34" width="264" height="52" fill="#006a4e"/>
  <text x="140" y="66" text-anchor="middle" fill="#f5ebd6" font-size="13" font-family="sans-serif" font-weight="bold">৭১ অ্যাটেন্ডেন্স</text>
  <!-- Face scan zone -->
  <rect x="8" y="86" width="264" height="200" fill="#0d0a06"/>
  <circle cx="140" cy="186" r="74" fill="none" stroke="#d4a04c" stroke-width="1" stroke-dasharray="6 5" opacity="0.4"/>
  <circle cx="140" cy="180" r="44" fill="#14100b" stroke="#d4a04c" stroke-width="1.5"/>
  <circle cx="126" cy="172" r="6" fill="#d4a04c"/>
  <circle cx="154" cy="172" r="6" fill="#d4a04c"/>
  <path d="M122 192 Q140 206 158 192" fill="none" stroke="#d4a04c" stroke-width="2" stroke-linecap="round"/>
  <path d="M78 112 L78 100 L90 100" fill="none" stroke="#d4a04c" stroke-width="2.5" stroke-linecap="round" stroke-linejoin="round"/>
  <path d="M190 100 L202 100 L202 112" fill="none" stroke="#d4a04c" stroke-width="2.5" stroke-linecap="round" stroke-linejoin="round"/>
  <path d="M78 260 L78 272 L90 272" fill="none" stroke="#d4a04c" stroke-width="2.5" stroke-linecap="round" stroke-linejoin="round"/>
  <path d="M190 272 L202 272 L202 260" fill="none" stroke="#d4a04c" stroke-width="2.5" stroke-linecap="round" stroke-linejoin="round"/>
  <text x="140" y="282" text-anchor="middle" fill="#7a6b54" font-size="9" font-family="sans-serif">মুখ স্ক্যান করুন</text>
  <!-- Records -->
  <text x="22" y="308" fill="#c9b896" font-size="10" font-family="sans-serif" font-weight="600">আজকের উপস্থিতি</text>
  <rect x="18" y="316" width="244" height="46" rx="8" fill="#14100b"/>
  <circle cx="42" cy="339" r="14" fill="#006a4e"/>
  <text x="42" y="344" text-anchor="middle" fill="#f5ebd6" font-size="11" font-family="sans-serif" font-weight="bold">AR</text>
  <rect x="64" y="328" width="108" height="8" rx="4" fill="#2a1e0f"/>
  <rect x="64" y="342" width="76" height="6" rx="3" fill="#1e1510"/>
  <rect x="214" y="330" width="38" height="18" rx="9" fill="#006a4e" opacity="0.8"/>
  <text x="233" y="343" text-anchor="middle" fill="#f5ebd6" font-size="8" font-family="sans-serif">উপস্থিত</text>
  <rect x="18" y="370" width="244" height="46" rx="8" fill="#14100b"/>
  <circle cx="42" cy="393" r="14" fill="#c1272d" opacity="0.85"/>
  <text x="42" y="398" text-anchor="middle" fill="#f5ebd6" font-size="11" font-family="sans-serif" font-weight="bold">SM</text>
  <rect x="64" y="382" width="118" height="8" rx="4" fill="#2a1e0f"/>
  <rect x="64" y="396" width="84" height="6" rx="3" fill="#1e1510"/>
  <rect x="210" y="384" width="42" height="18" rx="9" fill="#c1272d" opacity="0.5"/>
  <text x="231" y="397" text-anchor="middle" fill="#f5ebd6" font-size="8" font-family="sans-serif">অনুপস্থিত</text>
  <rect x="18" y="424" width="244" height="46" rx="8" fill="#14100b"/>
  <circle cx="42" cy="447" r="14" fill="#006a4e"/>
  <text x="42" y="452" text-anchor="middle" fill="#f5ebd6" font-size="11" font-family="sans-serif" font-weight="bold">KH</text>
  <rect x="64" y="436" width="96" height="8" rx="4" fill="#2a1e0f"/>
  <rect x="64" y="450" width="68" height="6" rx="3" fill="#1e1510"/>
  <rect x="214" y="438" width="38" height="18" rx="9" fill="#006a4e" opacity="0.8"/>
  <text x="233" y="451" text-anchor="middle" fill="#f5ebd6" font-size="8" font-family="sans-serif">উপস্থিত</text>
  <!-- Bottom nav -->
  <rect x="8" y="492" width="264" height="1" fill="#1e1510"/>
  <rect x="105" y="544" width="70" height="4" rx="2" fill="#2a1e0f"/>
</svg>
